<svg width="800" height="560" viewBox="0 0 800 560" fill="none" xmlns="http://www.w3.org/2000/svg">
  <rect width="800" height="560" rx="40" fill="url(#bg)"/>
  <circle cx="164" cy="92" r="88" fill="#F8FAFC" fill-opacity="0.24"/>
  <circle cx="654" cy="440" r="116" fill="#A7B3C8" fill-opacity="0.18"/>
  <rect x="100" y="94" width="600" height="372" rx="40" fill="#F8FBFF" fill-opacity="0.94"/>
  <g filter="url(#shadow)">
    <rect x="198" y="168" width="388" height="70" rx="35" fill="url(#pipe1)"/>
    <circle cx="226" cy="203" r="35" fill="#DDE6F0"/>
    <circle cx="226" cy="203" r="18" fill="#7C8A98"/>
    <rect x="178" y="258" width="428" height="70" rx="35" fill="url(#pipe2)"/>
    <circle cx="206" cy="293" r="35" fill="#E6EDF4"/>
    <circle cx="206" cy="293" r="18" fill="#8694A3"/>
    <rect x="222" y="348" width="344" height="70" rx="35" fill="url(#pipe3)"/>
    <circle cx="250" cy="383" r="35" fill="#DDE6F0"/>
    <circle cx="250" cy="383" r="18" fill="#7C8A98"/>
  </g>
  <defs>
    <filter id="shadow" x="146" y="144" width="484" height="298" filterUnits="userSpaceOnUse" color-interpolation-filters="sRGB">
      <feFlood flood-opacity="0" result="BackgroundImageFix"/>
      <feColorMatrix in="SourceAlpha" type="matrix" values="0 0 0 0 0 0 0 0 0 0 0 0 0 0 0 0 0 0 127 0" result="hardAlpha"/>
      <feOffset dy="8"/>
      <feGaussianBlur stdDeviation="12"/>
      <feColorMatrix type="matrix" values="0 0 0 0 0.364706 0 0 0 0 0.427451 0 0 0 0 0.501961 0 0 0 0.2 0"/>
      <feBlend mode="normal" in2="BackgroundImageFix" result="effect1_dropShadow_1_2"/>
      <feBlend mode="normal" in="SourceGraphic" in2="effect1_dropShadow_1_2" result="shape"/>
    </filter>
    <linearGradient id="bg" x1="80" y1="56" x2="716" y2="500" gradientUnits="userSpaceOnUse">
      <stop stop-color="#DDE7F2"/>
      <stop offset="0.48" stop-color="#C7D2DF"/>
      <stop offset="1" stop-color="#8E9DAF"/>
    </linearGradient>
    <linearGradient id="pipe1" x1="198" y1="203" x2="586" y2="203" gradientUnits="userSpaceOnUse">
      <stop stop-color="#A7B6C5"/>
      <stop offset="0.52" stop-color="#F3F7FA"/>
      <stop offset="1" stop-color="#76899A"/>
    </linearGradient>
    <linearGradient id="pipe2" x1="178" y1="293" x2="606" y2="293" gradientUnits="userSpaceOnUse">
      <stop stop-color="#7B8C9E"/>
      <stop offset="0.48" stop-color="#E8EEF4"/>
      <stop offset="1" stop-color="#A0AFBE"/>
    </linearGradient>
    <linearGradient id="pipe3" x1="222" y1="383" x2="566" y2="383" gradientUnits="userSpaceOnUse">
      <stop stop-color="#A7B6C5"/>
      <stop offset="0.55" stop-color="#F3F7FA"/>
      <stop offset="1" stop-color="#738696"/>
    </linearGradient>
  </defs>
</svg>
